<mxfile host="app.diagrams.net" modified="2023-11-03T00:39:06.634Z" agent="Mozilla/5.0 (Windows NT 10.0; Win64; x64) AppleWebKit/537.36 (KHTML, like Gecko) Chrome/118.0.0.0 Safari/537.36" version="22.0.8" etag="Zua0DSqjy3Rj-kpcv9dc" type="github">
  <diagram name="PÃ¡gina-1" id="IMEDKM5bIkjh9OdjRMLO">
    <mxGraphModel>
      <root>
        <mxCell id="0" />
        <mxCell id="1" parent="0" />
      </root>
    </mxGraphModel>
  </diagram>
</mxfile>
